<?xml version="1.0" encoding="utf-8"?><!-- Uploaded to: SVG Repo, www.svgrepo.com, Generator: SVG Repo Mixer Tools -->
<svg width="800px" height="800px" viewBox="0 0 400 400" fill="none" xmlns="http://www.w3.org/2000/svg">
<path d="M47 232.735C48.4246 221.084 48.7322 209.254 49.8438 197.66" stroke="#000000" stroke-opacity="0.9" stroke-width="16" stroke-linecap="round" stroke-linejoin="round"/>
<path d="M55.168 192.264C94.3021 170.326 238.898 95.2264 246.732 181.436" stroke="#000000" stroke-opacity="0.9" stroke-width="16" stroke-linecap="round" stroke-linejoin="round"/>
<path d="M75.4033 195.607C120.206 186.193 361.578 139.763 344.331 235.433" stroke="#000000" stroke-opacity="0.9" stroke-width="16" stroke-linecap="round" stroke-linejoin="round"/>
<path d="M322.277 244.876C332.859 243.916 342.827 239.677 353.305 238.131" stroke="#000000" stroke-opacity="0.9" stroke-width="16" stroke-linecap="round" stroke-linejoin="round"/>
<path d="M268.316 227.65C273.344 223.411 276.541 214.633 283.581 213.083C309.001 207.493 331.57 243.568 304.852 256.789C281.398 268.387 260.878 243.015 277.586 224.415" stroke="#000000" stroke-opacity="0.9" stroke-width="16" stroke-linecap="round" stroke-linejoin="round"/>
<path d="M79.5169 226.914C110.155 175.735 153.384 245.823 109.035 258.807C90.5036 264.232 70.4089 244.217 83.8087 229.115" stroke="#000000" stroke-opacity="0.9" stroke-width="16" stroke-linecap="round" stroke-linejoin="round"/>
<path d="M258.873 239.059C190.155 241.806 116.847 229.997 48.4229 235.624" stroke="#000000" stroke-opacity="0.9" stroke-width="16" stroke-linecap="round" stroke-linejoin="round"/>
<path d="M352.003 219.244C351.792 226.929 352.003 234.736 352.003 242.178" stroke="#000000" stroke-opacity="0.9" stroke-width="16" stroke-linecap="round" stroke-linejoin="round"/>
</svg>